:SAMPLES-PER-SECOND 30
:FULLY-SPECIFIED
:DEGREES
73
root  -10.0058 38.0147 -2.62458 178.011 68.4576 177.785
RightUpLeg  -24.9936 -2.20375 -4.13037
RightLeg  23.7471 0.0248176 -0.207131
RightFoot  1.16272 -1.05895 9.71698
RightToes  -5.8209e-011 0 -3.6325e-017
Spine  20.8807 1.08944 -6.67202
Spine1  20.4895 2.18592 -6.40244
HEad  -42.4633 42.1215 -30.3317
LeftShoulder1  2.03644 -5.34268 -16.2935
LeftArm  4.70428 -13.1646 -57.8702
LeftForeArm  34.1085 -77.3533 -101.468
LeftHand  -0.498671 3.66855 33.287
RightShoulder  1.10371 1.60272 14.8448
RightArm  4.43008 -4.90806 63.4163
RightForeArm  5.34201 40.0613 9.08529
RightHand  -1.2521 4.59246 -14.7681
LeftUpLeg  -12.2945 0.909127 0.264219
LeftLeg  33.3305 2.03309 1.80527
LeftFoot  -20.2755 -0.0751378 -2.51748
LeftToes  -3.91115e-011 -2.2622e-010 9.51032e-012
74
root  -10.244 37.919 -2.64496 178.294 68.6458 178.311
RightUpLeg  -25.3263 -2.80226 -3.99465
RightLeg  24.0673 0.563483 0.055649
RightFoot  1.11535 -1.10772 10.1946
RightToes  -5.8209e-011 0 -3.6325e-017
Spine  21.3345 1.20327 -6.64669
Spine1  20.8319 2.33136 -6.46594
HEad  -42.6952 42.0458 -30.3922
LeftShoulder1  2.02105 -5.23398 -16.4132
LeftArm  4.01276 -13.6058 -57.8893
LeftForeArm  37.0535 -77.2614 -103.601
LeftHand  -0.538555 3.54113 33.4396
RightShoulder  1.12836 1.71512 14.8507
RightArm  3.72442 -5.58251 63.8258
RightForeArm  5.43598 39.361 8.85427
RightHand  -1.24411 4.56821 -14.7102
LeftUpLeg  -12.943 0.924541 0.284952
LeftLeg  34.4003 2.16015 1.96081
LeftFoot  -20.5217 -0.0692619 -2.39568
LeftToes  -3.91115e-011 -2.2622e-010 9.51032e-012
75
root  -10.4549 37.8416 -2.66259 178.307 68.8769 178.635
RightUpLeg  -25.4711 -3.30672 -3.93001
RightLeg  24.2517 1.06378 0.304171
RightFoot  1.12115 -1.18018 10.8486
RightToes  -5.8209e-011 0 -3.6325e-017
Spine  21.6947 1.34581 -6.73615
Spine1  21.1568 2.45732 -6.45382
HEad  -42.6745 42.1569 -30.3145
LeftShoulder1  2.00158 -5.12208 -16.4935
LeftArm  3.35416 -14.1877 -58.2516
LeftForeArm  36.0765 -77.343 -102.085
LeftHand  -0.554851 3.46531 33.0828
RightShoulder  1.13684 1.74503 14.8929
RightArm  3.2163 -5.99438 63.9749
RightForeArm  5.35626 39.092 8.77412
RightHand  -1.27997 4.64248 -15.014
LeftUpLeg  -13.3093 1.00691 0.228777
LeftLeg  35.2077 2.37523 2.17449
LeftFoot  -20.6975 -0.0537338 -2.17347
LeftToes  -3.91115e-011 -2.2622e-010 9.51032e-012
76
root  -10.6442 37.7852 -2.67942 178.277 69.0366 178.847
RightUpLeg  -25.5759 -3.82775 -3.90337
RightLeg  24.3117 1.50806 0.525149
RightFoot  1.16464 -1.25627 11.5025
RightToes  -5.8209e-011 0 -3.6325e-017
Spine  21.9574 1.41747 -6.91496
Spine1  21.3746 2.47077 -6.41964
HEad  -42.5875 42.2825 -30.0821
LeftShoulder1  1.96573 -4.99137 -16.4226
LeftArm  2.76101 -14.8109 -58.8545
LeftForeArm  32.1473 -77.5079 -97.8705
LeftHand  -0.576722 3.37018 32.7577
RightShoulder  1.12144 1.63816 15.0602
RightArm  3.0236 -6.06364 63.8454
RightForeArm  5.43223 39.2509 8.8199
RightHand  -1.3194 4.74083 -15.3199
LeftUpLeg  -13.5907 0.926494 0.126527
LeftLeg  35.7683 2.62193 2.40459
LeftFoot  -20.8182 -0.0420166 -2.01311
LeftToes  -3.91115e-011 -2.2622e-010 9.51032e-012
77
root  -10.8096 37.7389 -2.70335 178.44 69.1833 179.214
RightUpLeg  -25.6576 -4.28319 -3.813
RightLeg  24.3251 1.89868 0.718743
RightFoot  1.20511 -1.30734 11.9281
RightToes  -5.8209e-011 0 -3.6325e-017
Spine  22.1269 1.39637 -7.08408
Spine1  21.4924 2.366 -6.34012
HEad  -42.6711 42.4388 -29.8895
LeftShoulder1  1.9484 -4.91457 -16.4282
LeftArm  2.12354 -15.3773 -59.283
LeftForeArm  26.9597 -77.6033 -93.0236
LeftHand  -0.620222 3.23309 32.9582
RightShoulder  1.09788 1.52989 15.0623
RightArm  2.77521 -5.92008 63.7217
RightForeArm  5.9424 39.8591 8.98276
RightHand  -1.32756 4.76262 -15.3799
LeftUpLeg  -13.8621 0.86635 0.108983
LeftLeg  36.2516 2.78123 2.56752
LeftFoot  -20.9336 -0.0377483 -1.94639
LeftToes  -3.91115e-011 -2.2622e-010 9.51032e-012
78
root  -10.9472 37.6969 -2.73542 178.681 69.4539 179.708
RightUpLeg  -25.6446 -4.50508 -3.67634
RightLeg  24.3077 2.20758 0.87065
RightFoot  1.25965 -1.34835 12.2471
RightToes  -5.8209e-011 0 -3.6325e-017
Spine  22.2722 1.35484 -7.23985
Spine1  21.4758 2.21548 -6.20005
HEad  -42.9222 42.7128 -29.9016
LeftShoulder1  1.98687 -4.97438 -16.7434
LeftArm  1.38534 -15.7954 -59.2853
LeftForeArm  21.9291 -77.6078 -88.6615
LeftHand  -0.659786 3.12212 33.3338
RightShoulder  1.08464 1.53362 14.7557
RightArm  2.30996 -5.70699 63.7356
RightForeArm  6.60667 40.7592 9.2353
RightHand  -1.3161 4.72238 -15.309
LeftUpLeg  -14.0275 1.05051 0.17416
LeftLeg  36.725 2.86001 2.66982
LeftFoot  -21.0445 -0.0310875 -1.85351
LeftToes  -3.91115e-011 -2.2622e-010 9.51032e-012
79
root  -11.0558 37.6629 -2.76879 178.843 69.8465 -179.857
RightUpLeg  -25.5621 -4.52871 -3.5653
RightLeg  24.2556 2.41651 0.971241
RightFoot  1.29666 -1.40537 12.7233
RightToes  -5.8209e-011 0 -3.6325e-017
Spine  22.4064 1.32045 -7.36368
Spine1  21.3183 2.09621 -6.11795
HEad  -43.1126 43.0347 -29.9578
LeftShoulder1  2.05132 -5.10039 -17.1859
LeftArm  0.704323 -16.0863 -59.118
LeftForeArm  17.4877 -77.5511 -84.3689
LeftHand  -0.710996 2.97633 33.6726
RightShoulder  1.08085 1.5851 14.4316
RightArm  1.77769 -5.45675 63.7041
RightForeArm  6.97993 41.7959 9.56166
RightHand  -1.30942 4.70233 -15.2626
LeftUpLeg  -14.0594 1.29913 0.231675
LeftLeg  37.1233 2.97769 2.79951
LeftFoot  -21.1332 -0.0237398 -1.75705
LeftToes  -3.91115e-011 -2.2622e-010 9.51032e-012
80
root  -11.1362 37.6394 -2.79745 178.999 70.2403 -179.492
RightUpLeg  -25.5139 -4.49036 -3.48127
RightLeg  24.2326 2.53419 1.028
RightFoot  1.18669 -1.45704 13.2941
RightToes  -5.8209e-011 0 -3.6325e-017
Spine  22.4319 1.25724 -7.39715
Spine1  21.1608 2.03201 -6.19151
HEad  -43.1324 43.2735 -29.8017
LeftShoulder1  2.06927 -5.12577 -17.3354
LeftArm  0.245046 -16.3529 -59.2531
LeftForeArm  13.3921 -77.4305 -80.077
LeftHand  -0.834685 2.63952 34.6661
RightShoulder  1.07485 1.57943 14.3277
RightArm  1.23018 -5.1554 63.524
RightForeArm  7.1518 42.9888 9.9698
RightHand  -1.30681 4.72874 -15.195
LeftUpLeg  -14.0599 1.3898 0.262917
LeftLeg  37.4158 3.19953 3.00739
LeftFoot  -21.201 -0.0240202 -1.7529
LeftToes  -3.91115e-011 -2.2622e-010 9.51032e-012
81
root  -11.1933 37.6219 -2.82022 179.199 70.5617 -179.136
RightUpLeg  -25.5084 -4.38481 -3.41112
RightLeg  24.3001 2.46573 0.997698
RightFoot  0.873162 -1.46065 13.6474
RightToes  -5.8209e-011 0 -3.6325e-017
Spine  22.3092 1.17664 -7.38068
Spine1  21.1522 1.99573 -6.3067
HEad  -43.0997 43.4304 -29.4804
LeftShoulder1  2.01908 -5.00336 -17.0683
LeftArm  -0.00254761 -16.6683 -59.8508
LeftForeArm  8.91559 -77.2336 -75.8587
LeftHand  -0.857685 2.57943 34.8289
RightShoulder  1.06185 1.52417 14.2994
RightArm  0.572754 -4.82946 63.3263
RightForeArm  7.57963 44.3793 10.4528
RightHand  -1.29918 4.76175 -15.062
LeftUpLeg  -14.0719 1.44871 0.30369
LeftLeg  37.6546 3.4362 3.2257
LeftFoot  -21.2561 -0.0276814 -1.78919
LeftToes  -3.91115e-011 -2.2622e-010 9.51032e-012
82
root  -11.2377 37.6048 -2.83877 179.279 70.8112 -178.882
RightUpLeg  -25.4713 -4.21038 -3.40664
RightLeg  24.4388 1.907 0.727285
RightFoot  0.465385 -1.41867 13.6906
RightToes  -5.8209e-011 0 -3.6325e-017
Spine  22.175 1.13911 -7.41339
Spine1  21.2237 1.94937 -6.28405
HEad  -43.0719 43.5591 -29.2205
LeftShoulder1  1.9513 -4.84358 -16.68
LeftArm  -0.060873 -17.072 -60.6355
LeftForeArm  3.26519 -76.8552 -70.2599
LeftHand  -0.870831 2.57694 35.3044
RightShoulder  1.04658 1.47293 14.2014
RightArm  -0.156453 -4.54617 63.1515
RightForeArm  8.34183 45.8752 10.9805
RightHand  -1.28968 4.76422 -14.9517
LeftUpLeg  -14.0368 1.67366 0.342207
LeftLeg  37.8682 3.53159 3.32736
LeftFoot  -21.3089 -0.0250237 -1.75288
LeftToes  -3.91115e-011 -2.2622e-010 9.51032e-012
83
root  -11.2783 37.5849 -2.85546 179.158 70.991 -178.816
RightUpLeg  -25.4226 -4.2037 -3.5026
RightLeg  24.6577 0.523529 0.0414644
RightFoot  0.0646111 -1.36296 13.5935
RightToes  -5.8209e-011 0 -3.6325e-017
Spine  22.1912 1.14942 -7.48326
Spine1  21.1665 1.8637 -6.10328
HEad  -42.9099 43.618 -29.0388
LeftShoulder1  1.91283 -4.74397 -16.4794
LeftArm  0.0702548 -17.5462 -61.2547
LeftForeArm  -3.60523 -76.058 -62.2244
LeftHand  -0.842854 2.73453 36.1901
RightShoulder  1.03357 1.42613 14.1312
RightArm  -0.798658 -4.35215 62.8883
RightForeArm  9.04876 47.3214 11.5243
RightHand  -1.27883 4.72377 -14.8864
LeftUpLeg  -13.9607 1.99564 0.344453
LeftLeg  38.0519 3.45395 3.28259
LeftFoot  -21.3761 -0.0162233 -1.64551
LeftToes  -3.91115e-011 -2.2622e-010 9.51032e-012
84
root  -11.3119 37.5557 -2.87091 179.032 71.131 -178.797
RightUpLeg  -25.4877 -4.64057 -3.62022
RightLeg  25.1096 -1.67151 -1.07867
RightFoot  -0.368434 -1.29287 13.3772
RightToes  -5.8209e-011 0 -3.6325e-017
Spine  22.3425 1.15774 -7.50694
Spine1  20.9168 1.73436 -5.8587
HEad  -42.5342 43.5617 -28.7681
LeftShoulder1  1.89982 -4.6977 -16.4488
LeftArm  0.155342 -17.9005 -61.6848
LeftForeArm  -10.5216 -74.7487 -53.5455
LeftHand  -0.753536 3.04322 36.6279
RightShoulder  1.02119 1.37171 14.1097
RightArm  -1.3103 -4.20998 62.6041
RightForeArm  9.46433 48.5652 12.0338
RightHand  -1.25787 4.65784 -14.7413
LeftUpLeg  -13.947 2.25197 0.335709
LeftLeg  38.2834 3.35066 3.22029
LeftFoot  -21.4862 -0.00866494 -1.54996
LeftToes  -3.91115e-011 -2.2622e-010 9.51032e-012
85
root  -11.3285 37.5035 -2.88371 179.075 71.3556 -178.637
RightUpLeg  -25.7301 -5.49968 -3.63596
RightLeg  25.9514 -4.14482 -2.42018
RightFoot  -0.89391 -1.18766 12.8713
RightToes  -5.8209e-011 0 -3.6325e-017
Spine  22.4733 1.15259 -7.48203
Spine1  20.6283 1.61018 -5.63598
HEad  -42.1184 43.4554 -28.3864
LeftShoulder1  1.88664 -4.67502 -16.3431
LeftArm  -0.173805 -17.8582 -62.198
LeftForeArm  -16.8442 -73.1353 -46.3394
LeftHand  -0.741229 3.06202 36.3482
RightShoulder  1.00638 1.32847 13.9788
RightArm  -1.73879 -4.00765 62.5318
RightForeArm  9.766 49.4633 12.4199
RightHand  -1.22676 4.6075 -14.4567
LeftUpLeg  -14.0353 2.44361 0.371004
LeftLeg  38.7245 3.38743 3.29799
LeftFoot  -21.7085 -0.00926784 -1.53785
LeftToes  -3.91115e-011 -2.2622e-010 9.51032e-012
86
root  -11.3247 37.4182 -2.89617 179.245 71.8054 -178.295
RightUpLeg  -26.076 -6.50428 -3.50248
RightLeg  27.1033 -6.1525 -3.63691
RightFoot  -1.46586 -1.0649 12.1669
RightToes  -5.8209e-011 0 -3.6325e-017
Spine  22.4824 1.16775 -7.43172
Spine1  20.4655 1.57161 -5.50469
HEad  -41.9086 43.3594 -28.0729
LeftShoulder1  1.86306 -4.67398 -16.0321
LeftArm  -0.872317 -17.3694 -62.9261
LeftForeArm  -22.9821 -71.2528 -40.3728
LeftHand  -0.786643 2.85495 35.4188
RightShoulder  0.988705 1.28992 13.7565
RightArm  -2.03101 -3.68132 62.6738
RightForeArm  10.1477 50.0138 12.6496
RightHand  -1.19583 4.57064 -14.1527
LeftUpLeg  -14.1456 2.64975 0.466249
LeftLeg  39.4571 3.59266 3.5572
LeftFoot  -22.131 -0.0222392 -1.64123
LeftToes  -3.91115e-011 -2.2622e-010 9.51032e-012
87
root  -11.304 37.3011 -2.9157 179.477 72.4995 -177.797
RightUpLeg  -26.4206 -7.35238 -3.26507
RightLeg  28.3419 -7.25817 -4.45281
RightFoot  -2.01884 -0.972156 11.7174
RightToes  -5.8209e-011 0 -3.6325e-017
Spine  22.4274 1.21585 -7.32004
Spine1  20.4114 1.64334 -5.49114
HEad  -41.9541 43.2598 -27.9638
LeftShoulder1  1.83335 -4.67325 -15.6377
LeftArm  -1.436 -16.6452 -63.6733
LeftForeArm  -28.3701 -68.8425 -34.7235
LeftHand  -0.802275 2.72635 34.4139
RightShoulder  0.969831 1.21552 13.6753
RightArm  -2.09277 -3.31759 62.7826
RightForeArm  10.5289 50.4077 12.8091
RightHand  -1.16908 4.48123 -13.9651
LeftUpLeg  -14.196 2.86397 0.600693
LeftLeg  40.4314 3.90852 3.95837
LeftFoot  -22.7739 -0.0461757 -1.82642
LeftToes  -3.91115e-011 -2.2622e-010 9.51032e-012
